<svg version="1.0" xmlns="http://www.w3.org/2000/svg"
 width="252.000000pt" height="200.000000pt" viewBox="0 0 252.000000 200.000000"
 preserveAspectRatio="xMidYMid meet">

<g transform="translate(0.000000,200.000000) scale(0.100000,-0.100000)"
fill="#000000" stroke="none">
<path d="M1413 1722 l-463 -267 0 -178 0 -178 58 32 c31 18 172 99 312 181
l255 147 3 -181 c1 -100 -1 -185 -5 -189 -5 -4 -147 -87 -316 -184 l-308 -177
155 -89 156 -89 315 181 315 182 0 538 c0 297 -3 539 -7 539 -5 -1 -216 -121
-470 -268z"/>
<path d="M2358 1904 l-148 -86 0 -178 0 -178 153 88 152 88 3 176 c1 97 -1
176 -5 176 -5 0 -74 -39 -155 -86z"/>
<path d="M2365 1181 l-150 -87 -5 -184 -5 -184 -312 -181 -313 -180 0 -178 c0
-169 1 -177 18 -168 58 31 908 524 915 530 4 4 6 167 5 363 l-3 356 -150 -87z"/>
</g>
</svg>