<svg version="1.0" xmlns="http://www.w3.org/2000/svg"
 width="1000.000000pt" height="420.000000pt" viewBox="0 0 1000.000000 420.000000"
 preserveAspectRatio="xMidYMid meet">

<g transform="translate(0.000000,420.000000) scale(0.100000,-0.100000)"
fill="#000000" stroke="none">
<path d="M5643 2607 c-15 -17 -95 -121 -176 -230 -81 -108 -151 -197 -155
-196 -4 0 -45 55 -92 122 -90 128 -114 157 -130 157 -22 0 -6 -28 88 -159 54
-75 101 -141 105 -148 4 -7 -41 -77 -108 -170 -63 -87 -115 -161 -115 -165 0
-16 27 -7 47 15 11 12 62 79 112 150 51 70 94 127 96 127 2 0 52 -67 112 -150
69 -96 114 -150 125 -150 10 0 18 4 18 8 0 5 -28 46 -62 93 -123 168 -158 219
-158 232 0 8 23 47 51 88 163 236 280 409 276 409 -3 0 -18 -15 -34 -33z"/>
<path d="M4067 2454 c-4 -4 -7 -151 -7 -326 0 -276 2 -318 15 -318 13 0 15 30
16 203 1 111 4 242 8 292 l6 90 121 -175 c66 -96 156 -227 199 -290 75 -109
224 -310 231 -310 15 0 -549 834 -567 838 -8 1 -18 0 -22 -4z"/>
<path d="M4605 2448 c-3 -7 -4 -153 -3 -323 l3 -310 209 0 c159 0 210 3 214
13 3 9 -38 12 -180 12 -132 0 -189 4 -201 13 -15 11 -17 29 -15 142 l3 130
183 3 c151 2 182 5 182 17 0 12 -31 15 -182 17 l-183 3 0 125 0 125 193 3
c177 2 193 4 190 20 -3 15 -23 17 -206 20 -157 2 -204 0 -207 -10z"/>
<path d="M5605 2450 c-14 -23 11 -30 110 -30 l105 0 2 -302 c3 -262 5 -303 18
-303 13 0 15 41 18 302 l2 302 113 3 c92 2 112 6 112 18 0 13 -34 15 -237 18
-153 1 -239 -1 -243 -8z"/>
<path d="M6312 1974 c-36 -25 -25 -55 31 -82 51 -24 56 -32 31 -53 -12 -10
-22 -10 -47 -1 -37 14 -48 7 -21 -13 45 -34 113 -2 100 48 -4 16 -18 28 -45
37 -45 14 -57 33 -35 51 11 9 21 9 40 0 38 -17 52 -13 25 9 -28 24 -49 25 -79
4z"/>
<path d="M6220 1916 c0 -73 -15 -96 -49 -74 -27 16 -40 2 -15 -17 51 -38 84
-4 84 88 0 38 -4 67 -10 67 -6 0 -10 -28 -10 -64z"/>
<path d="M6080 1830 c0 -5 5 -10 10 -10 6 0 10 5 10 10 0 6 -4 10 -10 10 -5 0
-10 -4 -10 -10z"/>
</g>
</svg>
