<svg version="1.0" xmlns="http://www.w3.org/2000/svg"
 width="317.000000pt" height="159.000000pt" viewBox="0 0 317.000000 159.000000"
 preserveAspectRatio="xMidYMid meet">

<g transform="translate(0.000000,159.000000) scale(0.100000,-0.100000)"
fill="#000000" stroke="none">
<path d="M1395 1495 c-268 -59 -579 -264 -665 -439 -75 -152 -26 -248 215
-420 61 -43 114 -82 118 -86 4 -4 -30 -28 -77 -55 -111 -62 -190 -132 -211
-190 -25 -63 -16 -138 18 -173 24 -23 35 -26 95 -26 118 0 224 70 275 183 16
35 21 64 20 126 -1 44 -3 90 -5 103 -2 18 7 29 51 54 l54 32 -7 -25 c-14 -47
-18 -164 -7 -206 23 -84 84 -120 131 -78 11 10 32 49 47 86 29 70 50 92 38 40
-11 -49 4 -101 33 -114 23 -10 28 -8 61 29 34 39 131 221 167 316 25 65 31 65
49 2 9 -32 23 -71 31 -85 13 -25 10 -30 -57 -113 -39 -49 -69 -94 -67 -104 2
-12 15 -18 42 -20 70 -6 157 45 183 107 13 29 13 44 3 86 l-12 50 58 99 59 98
16 -53 c8 -30 21 -64 28 -77 11 -21 9 -27 -29 -68 -91 -99 -94 -196 -6 -180
39 8 108 55 132 91 16 25 21 77 10 113 -6 17 0 22 30 32 48 16 158 16 212 -1
54 -16 118 -70 132 -113 13 -42 0 -82 -38 -113 -15 -13 -21 -23 -14 -23 7 0
29 15 49 34 33 30 37 38 37 85 0 102 -94 183 -227 196 -57 5 -105 -2 -193 -30
-18 -5 -23 0 -37 37 -26 69 -29 109 -14 160 8 26 12 49 9 52 -11 11 -90 6 -99
-6 -5 -7 -15 -31 -21 -53 -15 -50 -105 -218 -119 -222 -29 -10 -44 117 -23
182 15 44 2 59 -44 50 -16 -3 -34 -5 -40 -5 -7 0 -20 -24 -29 -52 -25 -79
-171 -391 -185 -396 -18 -6 -15 36 13 142 33 125 32 129 -5 124 -29 -4 -30 -3
-30 34 0 60 -14 78 -59 78 -43 0 -98 -32 -146 -85 -16 -18 -71 -55 -122 -81
-83 -44 -93 -47 -105 -33 -7 9 -58 53 -113 97 -119 95 -139 115 -160 164 -62
149 64 308 359 453 193 94 340 123 466 91 89 -23 124 -58 124 -123 -1 -165
-248 -344 -477 -345 -78 0 -119 12 -154 44 -31 29 -37 19 -13 -20 61 -100 299
-108 488 -16 78 38 176 134 212 208 81 164 30 294 -135 345 -79 25 -224 27
-320 6z m115 -782 c0 -24 -31 -121 -70 -218 -58 -147 -94 -151 -87 -10 3 68 8
90 37 143 18 35 45 72 58 83 31 24 62 25 62 2z m610 -170 c0 -41 -21 -74 -58
-93 -28 -14 -36 -9 -28 17 10 32 65 113 76 113 5 0 10 -17 10 -37z m-999 -70
c2 -63 -2 -96 -16 -129 -44 -106 -190 -182 -230 -120 -38 57 31 158 166 244
35 23 67 42 72 42 4 0 7 -17 8 -37z m749 22 c0 -23 -33 -76 -58 -94 -52 -37
-55 -23 -8 31 25 29 46 56 46 60 0 5 5 8 10 8 6 0 10 -2 10 -5z"/>
</g>
</svg>